<?xml version="1.0" encoding="utf-8"?>
<!-- Generator: Adobe Illustrator 16.0.0, SVG Export Plug-In . SVG Version: 6.00 Build 0)  -->
<!DOCTYPE svg PUBLIC "-//W3C//DTD SVG 1.1//EN" "http://www.w3.org/Graphics/SVG/1.1/DTD/svg11.dtd">
<svg version="1.1" id="Layer_1" xmlns="http://www.w3.org/2000/svg" xmlns:xlink="http://www.w3.org/1999/xlink" x="0px" y="0px"
	 width="1000px" height="1000px" viewBox="0 0 1000 1000" enable-background="new 0 0 1000 1000" xml:space="preserve">
<g>
	<g>
		<path d="M913.357,764.186C912.499,765.604,914.102,763.383,913.357,764.186L913.357,764.186z"/>
		<path d="M935.803,673.065l-1.641-1.654c-0.068-2.355-1.032-14.68-1.496-16.252c-0.854-2.436-1.017-1.104-0.922-4.793
			c0.011-2.354-0.669-8.006-1.682-10.129c-0.697-1.418-0.31-0.631-0.617-2.357l-1.157-4.322c-0.31-1.021-0.546-0.865-0.776-1.887
			c-0.31-1.1-0.07-1.727-0.302-2.826c-0.613-3.143-2.481-6.369-3.646-9.355c0-0.078-0.078-0.158-0.078-0.236
			c-0.387-1.178-0.067-2.434-0.533-3.455l-3.345-6.688c-0.545-0.943-0.54-2.199-0.927-3.535c-0.618-2.277-2.173-5.66-4.127-6.846
			c-0.227-2.199-0.537-3.377-1.627-5.186c-0.7-1.182-0.778-1.104-1.561-1.969l-3.424-6.451c-0.466-1.102-0.467-0.865-1.327-1.654
			c-1.484-1.42-4.21-6.141-5.3-8.029c-1.089-2.045-3.438-3.232-4.294-5.199c-0.699-1.65-1.716-2.361-2.889-3.545
			c-1.015-1.102-1.793-2.598-2.808-3.779l-5.158-5.045c0.001-0.078-0.156-0.158-0.156-0.158l-0.39-0.395l-0.235-0.236l-2.106-2.598
			c-1.406-1.184-0.471,0.076-1.563-1.42c-0.937-1.26-0.86-0.867-1.796-1.814c-2.268-2.049-4.298-4.412-6.645-6.229
			c-0.703-0.475-1.251-0.713-1.876-1.264l-5.317-4.42c-1.017-0.789-1.096-0.553-2.035-1.105c-0.94-0.633-2.11-2.051-3.519-3.078
			c-0.939-0.633-1.41-0.713-2.27-1.266c-0.861-0.555-0.939-0.945-1.643-1.498c-0.781-0.711-1.019-0.477-1.877-1.186
			c-1.642-1.42,0.159-0.783-1.8-1.344c-2.978-0.953-2.272-0.637-4.228-2.451c-1.251-1.182-2.817-1.582-4.464-2.139
			c-1.723-0.637-4.852-3.16-8.377-4.512l-4.385-2.295c-2.504-1.658-7.682-2.074-9.557-3.73c-1.72-1.578-2.351-0.951-4.388-1.824
			l-9.952-3.027c-1.804-0.4-1.175-0.633-2.35-1.031l-2.51-0.639c-1.881-0.715-3.764-0.408-5.884-0.498
			c-2.27-1.578-0.546-0.943-3.838-1.43c-1.647-0.32-1.802-0.871-4.313-0.883c-3.532-0.094-2.275-0.4-4.077-0.959
			c-1.097-0.396-3.608-0.094-4.942-0.18c-2.039-0.244-1.486-1.025-4.233-1.117l-20.719-0.092c-3.138-0.014-2.117-0.324-4.076-1.039
			c-2.742-0.875-6.045,0.523-9.333-0.904c-2.117-0.874-2.749-0.17-4.865-0.573c-1.961-0.479-0.702-0.865-3.918-1.037
			c-2.275-0.168-1.802-0.793-4.235-0.883c-2.746-0.09-5.642-1.752-8.229-2.469c-2.115-0.559-0.549-0.238-1.802-0.951
			c-0.075-0.078-1.566-0.633-1.566-0.633c-2.036-0.637-2.275,0.068-4.231-0.961l-3.369-1.664c-0.781-0.395-1.252-0.477-2.036-0.793
			c-0.157-0.08-0.469-0.238-0.548-0.238c-0.079-0.078-0.156-0.156-0.235-0.158c-0.079-0.078-0.154-0.158-0.234-0.158
			c-2.113-1.344-1.962-0.086-4.229-1.98c-0.938-0.867-2.191-1.266-3.524-1.742c-1.408-0.477-1.643-1.105-3.287-1.742
			c-2.82-1.031-1.796-2.049-6.339-4.109c-1.88-0.793-3.909-3.076-5.788-4.342c-2.19-1.344-3.675-3-5.866-4.342
			c-2.112-1.344-2.102-3.855-5.788-4.342c-0.543-1.73-1.397-3.225-2.887-4.096c-1.723-0.947-1.327-1.104-2.421-2.678l-6.48-7.17
			c-1.407-1.264-1.79-3.227-3.118-4.723c-2.422-2.758-1.251-1.42-3.118-4.566c-1.713-2.912-3.596-3.469-3.5-7
			c-2.038-1.029-2.42-3.15-3.668-4.961c-1.326-1.89-0.544-1.023-1.241-3.145c-0.465-1.492-0.233-0.393-0.777-1.416
			c-0.312-0.629-0.312-0.707-0.621-1.416c-0.312-0.786-0.935-2.045-1.402-2.831c-1.168-2.046-0.781-0.239-1.242-3.065
			c-0.382-2.043-1.393-4.323-2.248-6.29c-0.697-1.493-0.461-1.885-1.004-3.378c-0.542-1.65-1.018-0.555-1.164-2.91
			c-0.144-3.375-0.609-4.24-1.145-7.381c-0.229-1.414-1.013-1.575-1.085-3.145c-0.142-3.376-0.766-4.32-0.905-7.852
			c-0.07-1.885-0.308-1.649-0.772-3.064c-1.006-3.145-0.319-16.246-0.218-21.111c0.013-2.826,0.399-1.725,0.799-3.529
			c0.64-2.666-0.136-4.316,0.896-7.295c0.559-1.88,1.043-5.253,1.445-7.292c0.242-1.411,0.871-1.723,1.188-2.82
			c0.557-1.566-0.146-2.119,0.645-3.686l3.574-9.323c1.029-2.114-0.382-2.278,1.514-4.78l4.594-9.476
			c2.052-2.659,3.799-7.438,5.776-10.568c1.658-2.583,1.275-4.468,2.381-5.955c1.813-2.345,2.691-5.559,4.118-8.3l3.559-6.576
			c1.029-1.408,0.481-2.038,0.803-3.763c0.24-0.862,0.475-0.94,0.795-2.037c0.158-0.627,0.082-0.628,0.318-1.254l1.824-4.387
			c0.718-2.273,0.97-6.118,1.841-7.684c0.869-1.565,2.787-9.326,2.795-11.052c0.093-2.904,0.247-2.275,0.727-4.392
			c0.72-2.9-0.28-7.849,0.359-10.437c0.323-1.646,1.104-1.25,1.118-4.312c0.042-9.417,1.041-4.39,1.086-14.435
			c0.032-7.141-0.754-7.066-0.822-9.342c-0.033-10.124,0.097-4.003-1.137-9.109c-0.695-2.515,0.351-7.924-0.425-10.282
			c-0.386-1.258-0.548-0.16-0.777-1.73c-0.152-0.708,0.008-1.805-0.065-2.669c-0.074-0.785-0.77-3.457-1.082-4.086
			c-0.931-2.202-0.461-2.199-1.002-4.007c-0.54-1.887-1.02-0.005-1.08-4.086c0.009-1.962-0.536-2.906-1-4.321
			c-0.928-2.986-0.771-3.613-1.937-5.816l-1.239-3.851c-0.23-0.864-0.229-1.178-0.383-1.964l-3.501-7
			c-1.092-1.418-0.304-1.885-1.159-3.851c-0.854-1.965-0.854-1.965-0.922-4.399c-3.601-2.292-1.867-3.775-4.676-7.555
			c-1.717-2.205-1.802-0.792-2.572-3.7l-3.429-5.509c-0.623-0.945-0.388-1.257-0.934-2.123c-0.31-0.628-0.778-1.024-1.247-1.889
			c-0.624-1.023,0.079-0.078-0.624-0.945l-2.107-2.52c-0.467-0.709-0.621-1.338-1.089-2.125c-0.703-0.866-2.03-1.97-2.812-2.994
			l-2.574-3.7c-0.936-1.182-1.952-1.893-2.731-3.387l-0.701-1.338c0.001-0.157-0.075-0.235-0.153-0.314
			c0-0.079-0.234-0.394-0.234-0.472c-1.014-1.417-0.548-0.316-1.878-1.265c-1.096-0.79-1.168-2.124-2.653-3.151
			c-4.773-3.239-1.324-2.282-6.41-5.758c-0.704-0.474-1.872-2.677-2.572-3.543l-6.963-5.211c-0.078,0-0.861-0.631-0.938-0.71
			c-1.175-0.79-0.937-1.181-2.422-2.208c-1.722-1.185-3.84-1.665-5.323-3.163l-0.39-0.473c-0.393-0.394-0.938-0.946-1.408-1.34
			c-1.173-0.869-1.254-0.32-2.113-1.03c-1.799-1.342-2.733-3.387-5.239-4.183l-2.896-1.661c-4.536-3.474-4.62-2.218-6.734-3.797
			c-2.268-1.658-4.772-2.768-7.358-4.035l-4.774-2.611c-1.41-0.713-3.136-0.799-4.389-1.511l-4.228-1.902
			c-1.412-0.398-1.176-0.397-2.118-0.715c-1.881-0.715-2.897-1.269-4.857-1.435c-2.824-0.248-1.88-0.95-5.099-1.043
			c-0.782-0.318-0.935-1.417-3.521-2.057c-2.588-0.639-1.022,0.153-4.392-1.04c-1.646-0.635-3.767,0.062-5.099-0.416
			c-1.097-0.397-0.233-0.629-1.801-0.95c-0.783-0.16-1.647-0.085-2.509-0.247c-1.726-0.322-2.587-0.875-4.472-0.961L519.9,49.57
			c-0.394-0.237-0.86-0.789-2.193-0.873c-4.864-0.335-22.447,0.057-30.057-0.134c-0.707-0.003-2.042-0.088-2.749,0.066
			c-2.591,0.459,0.546,0.63-6.598,1.462c-1.964,0.227-2.595,0.773-4.713,0.764c-2.433,0.067-2.749,0.615-4.477,0.921
			c-0.944,0.231-1.572,0.149-2.514,0.381c-1.492,0.464,0.155,0.394-1.966,0.698c-2.04,0.226-3.295-0.25-5.182,0.369
			c-1.335,0.465-2.828,0.693-4.32,1.158l-6.286,1.855c-1.021,0.388-0.473,0.625-1.809,0.855c-0.865,0.153-1.727-0.008-2.668,0.145
			l-4.245,1.237c-1.1,0.309-0.315,0.077-1.101,0.465l-1.652,1.013c-0.787,0.39-0.157,0.079-0.865,0.31l-5.975,2.25
			c-1.18,0.544-0.945,0.703-1.652,1.013c-1.022,0.388-0.941,0.074-2.121,0.618c-1.418,0.779-1.733,1.405-3.463,2.025
			c-2.596,1.008-1.649,0.149-3.462,2.025c-1.813,1.797-8.179,3.573-9.917,6.155c-3.533,0.456-3.773,1.71-7.159,3.971
			c-0.079,0.078-0.235,0.156-0.313,0.155l-2.756,1.792c-1.574,0.936-1.34,1.329-2.287,2.659c-2.434,0.303-2.355,0.146-3.617,1.632
			c-1.658,1.955-3.624,3.044-5.748,4.369l-5.75,4.369c-0.552,0.547-0.789,0.938-1.34,1.485c-4.335,4.062-5.758,6.488-8.518,8.987
			c-4.018,3.592-3.629,4.536-5.916,6.958l-1.182,1.172c-0.948,1.252,0.076,0.393-1.263,1.408l-5.603,6.959
			c-1.27,2.82-1.658,2.033-3.951,5.79c-0.869,1.409-1.186,1.878-2.054,3.052c-1.421,2.034-2.296,4.698-3.64,6.497
			c-1.5,2.112-2.844,4.068-3.482,6.734c-0.32,1.49-0.479,1.489-1.268,2.584c-3.001,4.303-2.69,5.089-4.357,9.477l-1.742,3.21
			c-1.185,1.799-1.036,3.84-1.83,5.642c-0.476,1.175-1.265,2.035-1.662,3.289c-0.318,0.939-0.242,1.333-0.56,2.194
			c-2.542,6.739-1.367,7.371-2.477,9.721l-1.429,3.604c-0.637,2.038,0.152,0.942-1.038,3.998c-0.556,1.331-0.091,2.982-0.569,4.549
			c-0.48,1.96-0.639,2.195-0.727,4.548c-0.007,1.414,0.298,3.612-0.178,4.787c-0.556,1.41-1.185,1.564-1.194,3.762
			c-0.025,5.729-0.813,6.275-0.983,9.334c-0.097,3.845-0.55,17.421,0.303,20.014c1.316,3.93,0.133,5.416,0.82,9.343
			c0.307,1.884,0.938,1.182,1.004,3.849c-0.007,1.57-0.093,3.139,0.057,4.709l1.148,6.676c0.385,1.728,0.623,0.944,1.082,3.851
			l1.079,4.164c0.311,0.786,0.548,0.473,0.778,1.416c0.154,0.786-0.008,1.805,0.146,2.669c0.305,1.649,0.547,0.238,1.08,3.851
			l1.701,5.893c-0.001,0.079,0.779,1.024,0.934,1.417c0.546,1.102,0.233,0.787,0.385,2.042c0.225,2.199,0.699,1.573,1.16,3.852
			c0.539,2.513,2.885,4.25,3.266,6.764c0.458,2.906,2.093,5.738,3.496,8.176l1.008,2.517c0.311,0.786,0.546,0.787,1.012,1.731
			c0.312,0.707,0.311,1.179,0.541,1.807c0.389,0.865,1.17,1.811,2.504,2.13c0.069,1.962-0.088,1.727,0.613,3.221l2.41,4.72
			c0.547,1.022,0.701,1.416,1.09,2.358l6.902,18.082c0.77,3.536,1.782,5.267,1.844,8.797l2.145,12.018
			c-0.012,2.746,0.297,4.004,0.6,6.359c0.608,4.477,0.434,8.713,0.412,13.579c-0.012,2.354-0.492,4.471-0.895,6.509
			c-0.479,1.961,0.059,4.553-0.656,6.434c-0.795,2.429-0.253,4.157-0.891,6.195c-0.797,2.665-0.798,2.9-0.812,6.197
			c-0.637,1.958-0.783-0.239-1.504,3.053c-0.24,0.941-0.718,2.431-1.114,3.292c-0.714,1.565-0.558,1.959-1.114,3.526
			c-0.477,1.097-0.393-0.002-0.637,1.802c-0.568,4.472-0.16,0.862-1.51,4.389c-0.317,0.782-0.479,1.567-1.109,2.349
			c-1.578,2.034-1.19,2.82-1.986,5.485c-0.398,1.253-1.266,2.035-2.211,2.815l-0.393,0.391c-0.396,0.469-0.078-0.236-0.554,0.861
			c-0.476,1.175-1.198,4.703-1.751,5.406l-3.236,4.066c-0.79,1.331-0.319,1.333-1.346,2.662l-4.814,6.1
			c-0.711,0.859-0.945,1.016-1.734,1.799c-0.946,1.094-1.267,2.189-2.369,3.127c-2.127,1.875-3.867,5.084-6.229,6.643
			c-1.023,0.703-0.948,1.252-1.658,2.191c-0.475,0.703-0.947,1.172-1.734,1.797l-8.034,6.398c-1.182,1.25-1.021,0.152-2.047,1.404
			c-0.632,0.703,0.156,0.236-0.867,1.096l-2.048,1.402c-2.36,1.246-2.835,2.264-5.509,3.586c-1.495,0.699-4.252,2.963-6.69,4.129
			c-2.438,1.166-3.307,2.576-5.822,3.428l-6.291,2.719c-1.336,0.699-0.235,0.154-1.258,0.779l-15.639,4.561
			c-1.335,0.307-1.18,0.779-2.436,1.01c-2.829,0.457-3.374-0.486-6.361,0.756c-1.651,0.619-1.571,0.229-3.377,0.455
			c-2.277,0.225-0.552,0.469-2.437,0.932c-1.886,0.461-5.415-0.338-7.223,0.281c-3.3,1.084,0.389,0.943-6.282,0.914l-7.062-0.031
			c-9.104-0.119-8.872,0.98-13.66,0.879c-2.117-0.01-5.336-0.258-7.376,0.047c-1.964,0.305-0.552,0.625-5.892,1.151
			c-1.105,1.564-6.598,1.305-8.8,2.08c-1.101,0.387-0.632,0.781-2.515,0.93c-1.177,0.074-2.669-0.09-3.847,0.062l-10.847,3.875
			c-1.26,0.621-1.728,0.148-3.064,0.535c-0.705,0.154-1.887,0.855-2.672,1.166l-5.033,2.41c-0.708,0.232-1.651,0.541-2.438,1.088
			l-1.101,0.623c-2.829,0.771-3.226,1.633-5.113,2.33l-1.492,0.465c-2.044,0.854-4.086,0.846-5.582,2.25
			c-0.946,0.939-0.945,0.859-2.126,1.482c-1.495,0.701-1.022,0.467-2.985,1.008c-1.572,0.465-2.758,2.264-4.096,3.199
			c-2.127,1.48-1.886,0.305-4.564,2.805l-4.409,2.963c-0.235,0.156-0.393,0.234-0.708,0.469l-3.389,2.887
			c-1.654,1.484-1.963,0.541-4.25,3.121c-1.025,1.094-1.969,1.482-3.229,2.262c-0.001,0.078-0.945,0.859-1.024,0.936
			c-0.788,0.783-1.104,1.33-1.894,1.955c-2.203,1.639-3.625,3.75-5.753,5.547l-4.018,3.434c-1.024,0.938-0.634,1.174-1.499,1.955
			c-0.63,0.469-0.393,0.078-1.181,0.779l-2.604,2.893c-2.6,2.5-4.262,5.475-6.784,8.053c-1.498,1.564-2.214,3.994-3.792,5.557
			l-5.293,7.666c-0.947,1.486-1.975,2.896-3,4.383c-1.422,1.799-3.014,6.734-3.724,7.518c-1.892,2.109-3.316,4.693-3.799,7.359
			l-0.794,1.881c-0.079,0.076-0.08,0.234-0.158,0.311c-3.953,6.654-2.62,6.818-3.334,8.383c-0.316,0.707-3.306,2.42-4.518,10.184
			l-2.385,6.895c-0.4,1.568-0.159,0.158-0.557,1.49c-0.477,1.33-0.166,1.961-0.407,3.137c-0.159,0.783-0.871,1.723-1.033,2.898
			c-0.161,1.098,0.067,2.355-0.172,3.373c-0.319,1.098-0.867,0.859-1.033,2.82l-1.769,9.254c-0.318,1.412,0.215,5.102-1.436,5.566
			l-0.17,38.061c1.332,0.479,0.94,0.006,0.928,2.908c-0.084,1.098-0.089,2.197,0.222,3.219c0.231,0.551,0.235-0.232,0.543,1.416
			l0.058,4.553c0.47,0.395,0.625,0.473,1.33,0.947c0.374,4.238,1.08,4.008,1.146,6.596c-0.021,5.104,1.848,8.25,3.24,12.65
			c1.781,5.502,0.301,3.062,2.783,9.822c0.851,2.516,2.021,4.012,2.255,4.641l1.78,5.344c1.863,4.482,1.166,2.361,2.569,4.408
			c0.78,1.258,1.319,3.379,2.333,4.953c0.936,1.418,1.871,2.834,2.412,4.564c0.619,2.043,1.319,3.459,2.255,4.875l2.728,4.25
			c1.088,2.203,2.656,2.602,3.279,3.781c0.39,0.709,0.229,1.572,0.852,2.594c0.701,1.18,1.016,0.945,1.877,1.734
			c1.171,1.105,1.87,2.756,2.963,4.016l2.188,2.521c0.077,0,0.155,0.08,0.232,0.158l0.86,0.945c2.021,4.246,0.071,1.414,4.292,5.199
			c1.173,1.104,0.936,1.73,2.264,2.836c1.799,1.42,1.639,2.205,3.123,3.779c1.562,1.578,2.427,1.504,3.752,3.314l7.189,6.859
			c0.705,0.553,1.33,0.791,2.033,1.422c1.173,1.025,2.344,2.602,3.753,3.391c2.505,1.504,4.144,3.551,6.415,4.504
			c1.174,0.555,1.174,0.711,1.955,1.576c1.717,1.971,4.227,2.609,6.259,4.188c0.94,0.711,1.253,0.713,2.192,1.344
			c2.895,2.055,2.506,0.955,6.574,3.955c0.861,0.709,6.501,3.01,9.16,4.906c2.816,1.975,1.172,1.34,5.329,1.75
			c1.093,1.184,1.798,1.656,3.286,2.133l8.229,2.783c3.837,1.824,7.598,3.332,11.911,3.742c2.747,0.248,5.25,1.908,8.151,2.312
			c2.433,0.404,1.96,0.795,4.705,0.963c3.453,0.172,0.938,1.104,9.335,1.141c4.708,0.1-0.163,1.334,8.938,1.453
			c2.748,0.012,3.371,1.191,14.436,1.162c2.982,0.014,8.082,0.271,10.831-0.029l3.223-1.006c0.235-0.076,0.863,0.004,1.177,0.006
			c1.569-0.072,3.531,0.094,4.711-0.293c1.963-0.541,0.236-0.391,1.963-0.775c2.437-0.539,5.338-0.057,7.771-0.123
			c2.434-0.068,1.73-0.855,4.243-1.08c3.61-0.297,1.415-0.779,3.929-1.08c1.021-0.152,1.412,0.084,2.513-0.305l6.051-1.775
			c3.612-0.299,7.072-1.854,10.294-2.859c2.043-0.697,0.393,0.002,1.73-0.934c1.652-1.014,2.277-0.383,4.086-1.08l2.043-0.697
			c0.315-0.156,1.573-0.621,1.887-0.777c1.26-0.701,2.047-1.168,3.461-1.789l0.002-0.471c5.104-0.525,5.979-3.113,8.73-4.199
			c1.1-0.387,2.434-0.146,3.221-0.613c0.631-0.469,0.316-0.471,1.183-1.172c2.837-2.498,6.606-3.189,9.049-5.373
			c0.945-0.783,1.026-1.488,2.206-1.953l2.754-1.637c0.709-0.467,0.787-0.389,1.496-0.777l2.283-1.639
			c1.493-0.855,1.969-1.797,3.621-2.652s0.156,0.08,1.416-0.936c2.049-1.717,4.168-1.787,5.047-5.156
			c4.083-0.689,4.33-3.041,7.162-4.834c2.047-1.246,0.479-1.803,3.941-3.984l5.522-6.02c1.655-1.719,3.858-3.121,4.966-5.234
			c1.584-2.898,1.576-1.328,2.998-3.283c0.079-0.078,0.079-0.156,0.158-0.236c0-0.078,0.078-0.154,0.158-0.234l6.002-8.447
			c0.711-1.252,0.635-1.646,1.58-2.662c0.711-0.781,1.262-1.17,1.814-2.111c0.318-0.627,0.319-0.783,0.635-1.332
			c0.871-1.408-0.079,0,0.946-1.016l4.115-7.672c1.264-1.955,2.124-0.932,3.317-4.537c0.557-1.645,2.288-2.893,3.473-4.537
			c1.815-2.502,4.26-4.768,5.131-6.648l0.635-1.408c0.791-1.566,2.834-2.264,3.861-3.828c1.502-2.348,2.598-1.479,4.335-3.826
			c1.737-2.426,0.556-1.488,3.073-3.125c1.811-1.248,1.186-1.879,3.311-2.969c1.021-0.543,1.57-0.385,2.279-0.854
			c0.709-0.545,0.477-1.174,4.098-3.67c1.338-0.857,2.121-0.773,3.223-1.477c1.576-1.012,1.502-2.268,3.232-2.969
			c1.179-0.463,1.258-0.543,2.123-1.01l7.397-4.596c0.55-0.156,0.55-0.156,1.179-0.389c0.63-0.311,0.316-0.154,1.022-0.623
			c0.788-0.389,1.339-0.699,2.046-1.012c3.068-1.555,6.367-2.09,9.041-3.49l1.574-0.777c0.076-0.078,0.155-0.078,0.234-0.156
			c0.078-0.078,0.158-0.156,0.237-0.156c1.336-0.857,0.63-0.547,2.591-0.693c1.964-0.07,3.064-0.693,4.794-1.234l14.379-3.861
			c2.828-0.693,8.479-0.746,11.542-1.047c1.568-0.15,3.377-0.848,5.183-0.996c3.691-0.377,8.632,0.273,12.084,0.445
			c1.569,0.008,1.337-0.387,2.672-0.301c1.175,0.006,1.252,0.475,2.428,0.639c1.725,0.32,4.08,0.096,5.807,0.104
			c1.884,0.088,8.39,2.158,10.115,2.244c7.06,0.58,1.566,0.791,10.191,2.477c1.725,0.322,0.783,0.396,2.351,0.795l5.017,1.201
			c1.961,0.479,0.469,0.314,1.957,1.186c1.097,0.633,3.056,1.426,4.307,2.061c2.116,0.949,1.723,0.869,4.624,1.275
			c1.718,2.127,1.091,1.811,3.678,2.764c2.272,0.873,1.329,1.34,4.937,1.512c1.791,3.227,5.009,3.555,7.824,5.764
			c1.953,1.5,2.343,2.602,5.323,3.006c1.323,2.049,2.887,3.311,4.607,4.574l6.256,5.521c0.546,0.551,0.468,0.629,1.014,1.26
			l2.344,2.365c1.561,1.969,3.047,2.996,4.688,4.65l2.028,2.678c0.781,0.789,1.482,1.654,2.185,2.521
			c2.342,2.836,2.66,2.365,3.203,3.703l4.44,7.318c1.326,1.811,1.008,2.672,2.727,4.328c0.313,0.314,0.077,0.156,0.626,0.475
			c0.079,0.078,0.548,0.314,0.705,0.395c0.297,3.533,2.258,4.092,3.656,6.924l2.184,3.383c0.778,1.182,2.032,1.736,2.499,2.521
			c1.091,1.732-0.24,1.49,1.946,3.541c0.938,0.869,1.642,1.578,2.265,2.758l2.104,2.99c0.781,0.867,1.246,2.125,2.027,2.992
			s0.861,0.396,1.485,1.262c1.561,1.971,1.089,2.047,3.75,4.021c1.643,1.184,1.013,1.65,2.419,2.678
			c1.879,1.264,2.266,2.443,3.83,3.941c0.78,0.709,0.859,0.553,1.563,1.186c1.016,0.867,1.64,1.811,2.501,2.6
			c0.779,0.789,0.78,0.631,1.562,1.184c1.175,0.791,0.391,0.314,1.173,1.105c6.328,6.385,3.598,2.918,8.991,7.494l3.209,2.211
			c3.203,3.076,4.928,3.555,8.211,6.238c1.72,1.498,4.466,2.061,6.184,3.951c0.858,0.867,0.075,0.707,1.563,1.184
			c2.899,1.111,5.795,3.008,8.535,4.275l3.997,1.275c1.49,0.477,2.114,1.344,3.522,1.977c1.959,0.795,3.602,1.9,5.641,2.223
			c1.411,0.32,0.394,0.002,1.489,0.635l7.203,3.408c1.567,0.635,2.824,0.246,4.236,0.803c3.446,1.35,2.975,1.74,7.442,2.779
			c0.861,0.24,1.411,0.086,2.354,0.324c1.175,0.318,0.859,0.555,1.957,0.873c1.724,0.4,2.513-0.225,4.551,0.57l4.232,0.881
			c1.961,0.559-0.001,0.314,1.96,0.715c1.489,0.242,3.295,0.016,4.47,0.57c1.88,1.027,4.863,0.807,6.902,1.051
			c9.49,1.299,20.243,0.875,29.975,0.918c11.302,0.051,5.969-0.914,14.445-1.113l4.399-0.764c1.021-0.23,1.648,0.008,2.589-0.146
			l6.052-1.777c1.73-0.777,2.59-0.225,4.555-0.451c1.648-0.229,4.163-1.473,5.737-2.014c0.942-0.232,1.334-0.15,2.199-0.461
			c0.707-0.312,1.102-0.623,1.888-0.775c1.021-0.232,1.099-0.074,2.04-0.385c1.496-0.543,2.75-0.537,4.086-1.08l7.157-3.266
			c1.731-0.934,2.826-0.143,4.319-0.844l1.732-1.246c0.079-0.08,0.237-0.156,0.316-0.156l1.021-0.467
			c1.493-0.621,2.041-0.461,2.676-2.105c3.771-0.299,5.345-1.311,7.865-3.42c0.079-0.078,0.156-0.156,0.235-0.156
			c0.788-0.701,1.574-0.855,2.597-1.244l2.123-1.088c1.498-1.406,3.464-2.496,5.584-2.957c5.657-1.232,0.798-2.9,6.925-4.365
			c1.887-0.461,2.363-1.715,3.625-2.965c0.078-0.078,0.158-0.158,0.158-0.234c1.654-1.643,3.381-1.477,4.804-3.434
			c0.632-0.938,0.79-1.486,1.813-1.953c0.472-0.232,0.156,0,0.863-0.387l5.592-4.529c0.789-0.701,1.029-1.564,1.736-2.189
			c1.42-1.326,3.226-1.555,4.097-3.355c1.348-2.82,1.498-1.404,3.469-3.594c1.579-1.721,1.264-1.801,3.076-3.205l2.916-2.812
			c1.341-1.328,2.209-2.58,3.159-4.303c0.87-1.723,1.972-2.346,3.395-4.457c1.58-2.506,3.469-3.516,3.945-4.77l0.159-0.549
			c0.237-0.549,0.474-0.703,0.711-1.174l1.581-2.27c2.603-3.363,4.271-7.67,7.109-10.877c0.079-0.078,0.159-0.156,0.237-0.156
			c0-0.076,0.079-0.156,0.159-0.234c0.106-0.125,0.184-0.213,0.25-0.285c0.023-0.035,0.038-0.062,0.063-0.105
			c1.345-2.113-0.855-1.416,1.511-3.994c1.104-1.174,1.733-1.564,2.133-3.289l4.283-9.869c0.714-2.193,2.308-7.289,3.571-8.93
			c1.024-1.172,0.638-2.666,0.96-4.234c0.241-1.488,0.553-0.859,1.03-2.35c0.319-0.939,0.166-1.961,0.484-2.98
			c1.433-4.545,3.338-9.01,4.063-13.949c0.246-2.041-0.29-4.947,0.503-6.592c0.632-1.408,0.705-0.154,0.873-2.508
			c0.174-3.766,1.201-5.488,1.141-9.412c0.018-3.924,0.406-3.295,0.735-6.275c0.404-2.744-0.516-7.693,0.594-10.119
			c0.635-1.49,0.709-0.469,0.799-3.059C936.105,675.657,936.191,673.774,935.803,673.065z M342.392,696.706
			c-0.161,0.941-0.555,1.018-0.717,2.037c-0.402,2.354-0.174,3.924-0.967,5.961c-0.24,0.705-0.159,0.234-0.241,1.018
			c-0.239,1.098-0.164,1.648-0.401,2.354c-0.48,2.117-0.873,2.037-0.885,4.705c-1.181,0.701-0.631,0.547-1.027,1.25
			c-0.078,0.078-0.156,0.158-0.156,0.234c-1.896,2.975-4.355,8.771-4.606,12.145c-1.81,0.934-1.974,2.66-3.003,4.617
			c-0.078,0.078-0.078,0.156-0.158,0.234l-0.714,1.645c-1.901,4.23-4.669,8.691-7.511,12.367c0,0.078-0.08,0.156-0.158,0.234
			l-1.815,2.504c-0.792,1.486-2.287,2.422-3.157,3.91c-1.58,2.504-2.128,2.029-3.469,3.438l-3.467,3.123
			c-2.361,1.559-1.74,3.287-5.203,5.312c-1.968,1.248-1.579,2.033-4.016,2.965c-0.865,0.389-0.393,0.078-1.259,0.779l-2.68,2.342
			c-3.308,2.498-4.639,2.021-7.708,3.969c-2.52,1.637-0.868,1.096-4.328,2.729c-0.08,0.076-0.395,0.232-0.473,0.232l-0.551,0.312
			c-0.551,0.389-0.551,0.389-1.182,0.779c-0.078-0.002-0.156,0.076-0.234,0.076l-3.225,1.398c-1.492,0.465-0.552,0.547-2.592,0.537
			l-1.812,1.799c-1.811,1.168-3.061-0.328-3.464,2.338c-3.297,0.064-0.708,0.469-2.985,0.771c-3.221,0.457-0.941-0.082-2.987,1.008
			l-11.941,2.85c-1.572,0.621-3.382,1.555-5.424,1.781c-1.335,0.15-2.511-0.09-3.767,0.217c-1.494,0.309-0.788,0.547-2.75,0.617
			l-14.834-0.066c-2.902-0.172,0.316-0.469-3.057-0.721c-4.551-0.412-9.418,0.271-13.333-1.863
			c-2.584-1.348-3.769,0.295-7.214-1.367l-3.055-1.27c-1.958-0.871-8.47-1.529-11.055-2.639l-0.861-0.396
			c-0.861-0.318-0.939-0.162-1.566-0.4l-16.283-9.334c0-0.076-0.078-0.156-0.156-0.236c-0.859-0.865-1.096-0.867-2.189-1.736
			c-0.938-0.631-1.33-0.869-1.955-1.498c-4.377-4.102-3.051-1.977-7.744-5.607l-1.484-1.654l-0.156-0.158l-0.234-0.236l-8.594-8.906
			l-0.39-0.395c-0.391-0.395-0.235-0.236-0.624-0.865l-8.035-10.709c0-0.078-0.078-0.158-0.157-0.158l-1.323-2.203
			c0-0.078-0.234-0.471-0.39-0.787c0-0.078-0.233-0.393-0.231-0.549c-0.156-0.238-0.391-0.709-0.701-1.182l-2.568-4.877
			c-2.648-4.721-2.329-5.818-3.805-9.357c-0.078-0.156-0.078-0.234-0.156-0.312l-3.256-8.648c-0.924-3.928,0.1-4.865-2.018-5.189
			c0.007-1.646-0.613-3.064-0.769-3.691c-0.154-0.785-0.151-1.492-0.305-2.041l-1.572-17.271l0.36-10.123
			c0.082-0.707,0.085-1.334,0.088-2.041l2.025-14.432c1.109-2.27,0.401-1.881,0.959-3.527l8.813-23.111
			c0.317-0.549,0.079,0,0.396-0.783c0.079-0.078,0.079-0.234,0.157-0.312c0.001-0.08,0.08-0.156,0.08-0.236
			c0.317-0.625,0.476-0.859,0.791-1.486l1.264-1.721l0.236-0.234l3.956-6.969l11.912-14.072c0.158-0.078,0.395-0.312,0.552-0.391
			c0,0,0.158-0.076,0.236-0.154l4.492-4.377c0.08,0.002,0.158-0.076,0.236-0.076l0.787-0.467l0.236-0.234l0.236-0.234
			c1.893-1.953,3.785-3.986,5.989-5.545c1.495-1.014,2.123-0.855,4.249-2.416l3.777-2.414c1.103-0.703,1.499-1.484,2.443-2.266
			c1.811-1.326,4.01-1.865,5.9-3.035l20.127-8.229c2.75-0.93,4.24-0.451,6.912-1.617c0.865-0.309,2.671-0.381,3.614-0.611
			c1.885-0.463,4.71-0.135,6.596-0.912c2.124-0.855,6.047-0.758,8.166-0.984c2.199-0.303,21.661,0.018,22.831,1.594l3.139,0.014
			c1.09,1.967,1.096,0.711,3.213,1.27c0.705,0.162,0.232,0.395,1.801,0.637c1.255,0.162,2.825,0.092,3.844,0.645l3.604,1.273
			c0,0,1.49,0.398,1.568,0.398c2.038,0.322,3.37,1.035,5.25,1.75l4.464,2.139c1.959,0.637,1.331,0.869,2.819,1.424
			c0.939,0.32,1.646,0.244,2.43,0.639l15.966,9.725c0.079,0.08,0.157,0.158,0.235,0.16l1.483,1.574l0.235,0.238
			c0,0.078,0.077,0.156,0.155,0.234l4.536,3.395c1.723,1.029,10.394,10.094,12.659,12.457c0.938,0.945,0.698,1.73,1.636,2.756
			c0.078,0.076,0.547,0.473,0.625,0.551c0.078,0,0.234,0.08,0.234,0.158l5.072,6.615c1.484,1.732,2.724,5.113,4.127,7.16
			c0.623,0.943,1.093,1.26,1.637,2.439l0.778,1.652c0.777,1.65,0.847,3.77,2.886,3.857c0.076,0.707,0.229,1.648,0.539,2.436
			l4.109,11.396c3.091,10.531,4.535,21.133,4.484,32.668L342.392,696.706z M609.729,231.887c-0.014,3.14-1.153,12.552-2.03,14.982
			l-0.398,1.725c-0.082,0.705-0.003,0.627-0.164,1.333l-0.797,2.742c0,0.079-0.562,2.667-0.641,2.901l-2.858,7.443
			c-1.738,2.425-2.07,6.74-4.124,9.556l-5.859,11.433c-0.394,0.625-0.394,0.547-0.788,1.095l-2.367,2.736
			c-1.104,1.33-1.581,2.896-2.765,4.148l-4.342,5.474c-1.497,1.484-2.763,3.598-4.415,4.846c-0.396,0.312-0.473,0.39-0.868,0.781
			l-9.608,7.805c-1.731,1.17-0.633,0.86-1.422,1.877l-20.537,12.309c-1.181,0.622-0.396,0.234-1.101,0.544l-12.971,4.416
			c-2.277,0.539-1.574,1.091-7.702,2.476l-4.477,0.922c-0.158,0-0.235,0.078-0.314,0.078c-0.157,0.078-0.236,0.077-0.315,0.155
			l-3.61,0.377c-2.67,0.066-4.715,1.235-8.953,1.216c-4.709-0.1-9.417-0.121-14.048-0.142c-4.474,0.059-8.234-1.058-12.078-1.545
			c-2.354-0.246-4.001-0.646-5.803-1.124c-2.977-0.877-8.469-1.686-11.21-2.798l-11.826-5.31c-2.584-1.268-3.682-1.508-6.266-3.089
			l-7.514-4.585c-0.078-0.079-0.154-0.079-0.232-0.157l-3.207-2.605c-0.627-0.474-0.078-0.157-0.703-0.553
			c-0.078,0-0.236-0.079-0.314-0.079c-0.078-0.079-0.156-0.08-0.233-0.159c-0.079-0.079-0.157-0.079-0.235-0.08l-2.66-2.051
			c-0.783-0.554-1.174-0.869-1.877-1.579l-4.533-4.102c-0.47-0.394-0.703-0.473-0.939-0.632l-2.498-2.757
			c-0.546-0.787-0.078-0.393-0.938-0.946c-2.189-1.579-3.982-4.413-5.698-6.618l-8.345-11.967c-1.327-1.575-1.015-1.496-1.788-3.46
			l-8.556-17.46c-0.153-0.708-0.076-0.55-0.151-1.256c-0.23-1.258-1.705-4.717-2.32-7.859c-0.46-2.199-0.467-0.708-1.087-2.516
			c-0.929-2.908-1.074-5.419-1.608-8.797c-0.305-2.277,0.078-0.077-0.464-1.65c-0.697-1.964,0.104-5.807-0.28-7.692l-0.543-1.18
			c-0.543-1.494-0.143-3.454-0.136-5.023c0.029-6.513,0.745-8.708,0.845-13.26c0.018-3.845,1.137-8.392,1.779-11.764
			c0.24-1.176,0.244-1.96,0.562-2.901l0.953-2.665c0.081-0.627,0.479-1.959,0.719-2.743c0.637-2.038,0.951-2.037,1.587-3.839
			c0.636-1.723,1.425-2.897,1.905-4.857c0.161-0.941-0.155-0.314,0.24-1.097l0.712-1.332c0.238-0.626,0.161-0.94,0.319-1.253
			l0.868-1.017c0,0,0.397-1.097,0.478-1.253c0.318-1.176-0.076-0.471,0.477-1.253c1.657-2.347,1.021-0.624,1.741-3.524
			c0.479-2.039,2.454-4.62,3.795-6.183c1.263-1.564,1.741-3.445,2.69-4.697l0.234-0.234l2.686-3.52
			c0.157-0.234,0.473-0.625,0.788-1.095c0.396-0.469,0.475-0.625,0.712-0.938l10.648-11.881l0.787-0.782l9.53-7.648l14.64-9.352
			c0.708-0.233,0.786-0.076,1.57-0.386c0.945-0.466,1.262-1.25,2.205-1.637l4.796-1.863c0.237-0.155,0.865-0.231,1.099-0.309
			c1.416-0.464,1.181-0.623,1.418-0.778c0.239-0.19,0.397-0.33,0.496-0.431c-1.377,0.394,0.663-0.679,0,0
			c0.102-0.029,0.224-0.067,0.368-0.114c0.472-0.155,1.415-0.387,1.572-0.463l3.537-1.398c5.813-1.387,12.966-3.473,19.718-4.306
			c6.519-0.834,12.563-1.435,19.47-1.09c1.411,0.083,1.409,0.397,3.057,0.405c2.196,0.168,4.632-0.135,6.827,0.188l5.334,0.652
			c0.778,1.651,1.486,1.419,4.937,1.984c1.099,0.161,1.646,0.4,2.822,0.641c1.253,0.241,1.804,0.399,2.821,0.718l12.692,4.922
			c1.803,0.636,4.075,1.274,5.798,2.224c0.078,0.078,0.391,0.237,0.469,0.316l4.778,2.297c0.938,0.475,1.483,1.419,2.502,1.816
			l0.547,0.239c2.586,1.189,3.986,3.863,6.728,5.287l2.033,1.422c1.173,1.104,1.484,1.262,2.185,2.756
			c0.622,1.336,1.408,1.418,2.737,2.131l6.8,6.779c4.219,3.943,2.807,3.858,4.292,5.042c1.487,1.263,2.425,1.816,3.596,3.469
			l1.482,1.655c2.74,1.817,1.719,1.812,3.983,4.177l8.335,14.164c2.495,3.386,2.952,6.998,3.729,8.414l0.853,2.515
			c0,0.079,0.156,0.471,0.156,0.628c0.386,1.179,0.143,2.826,1.001,4.164c1.247,1.811,0.551-0.547,1.09,1.81l0.924,3.85
			c0.7,1.495,0.613,3.142,1.156,4.715c0.621,1.65,0.311,0.865,0.536,2.827c0.229,1.492,0.769,3.927,1.072,5.89
			C610.184,218.077,609.759,225.374,609.729,231.887z M870.86,699.379c-0.078,0.314-0.316,0.627-0.556,1.334
			c-0.794,2.428-0.103,5.883-2.332,12.545l-1.435,5.252c-0.641,2.9-1.825,4.543-2.778,7.287c-0.479,1.41-0.245,1.881-0.409,3.371
			c-0.162,1.492-0.949,1.801-1.899,3.76l-1.979,3.836c-1.108,2.193-0.398,1.412-1.976,2.895c-0.707,0.625-0.71,1.174-1.422,2.27
			l-3.558,5.715c-0.078,0.076-0.158,0.154-0.158,0.232l-3.315,4.537c-1.502,2.035-5.841,7.195-7.334,8.209l-1.658,1.562
			c-1.342,1.955-2.285,2.266-3.94,3.748l-3.545,3.123c-1.262,1.328-3.391,3.596-5.041,4.139c-1.021,0.387-0.156-0.158-1.258,0.465
			l-1.261,1.014c-1.731,1.092-3.229,2.576-5.116,3.432l-2.675,1.635c-0.473,0.312-0.788,0.547-1.103,0.859l-3.15,2.34
			c-0.079,0.078-0.158,0.156-0.235,0.156c-0.079,0.078-0.157,0.078-0.236,0.156l-1.18,0.543c-1.101,0.467-1.416,0.385-2.358,0.854
			c-6.292,3.111-3.384,2.104-5.273,3.35l-5.03,1.861c-3.537,1.162-4.086,0.924-6.365,1.855l-4.872,1.312
			c-2.673,0.93-7.46,0.83-8.56,1.217c-0.158,0-0.234,0.078-0.313,0.078c-1.574,0.543-10.284,0.895-12.562,0.885
			c-11.85-0.053-24.8-0.111-34.748-3.844c-0.079-0.078-0.236-0.08-0.314-0.158l-10.971-3.814c-1.018-0.477-0.078-0.16-1.488-0.557
			c-2.038-0.559-3.603-1.586-5.56-2.537l-6.814-3.326c-0.859-0.553-1.25-0.869-2.19-1.422l-1.096-0.713
			c0-0.076-0.078-0.156-0.156-0.234l-5.164-3.555c-0.076,0-0.391-0.16-0.47-0.238c-0.626-0.395-0.312-0.236-0.938-0.633
			l-1.017-0.553c-0.394-0.238-0.472-0.395-0.784-0.633c-2.501-2.363-5.24-3.789-6.803-5.365l-2.187-2.443
			c-0.781-0.945-0.545-0.943-1.958-1.186c-0.223-2.982-2.811-2.918-4.604-5.516c-0.39-0.551-0.234-0.471-0.703-0.943l-3.983-4.178
			c1.176,0.164,0.628,0.082,0.636-1.803c-1.802-0.871-1.724-0.635-2.815-2.209c0.001-0.08-0.078-0.156-0.156-0.236
			c-2.418-3.307-0.705-0.318-1.867-3.146l-2.028-3.07c-1.17-1.576-1.017-0.789-1.714-2.912c-0.466-1.18,0.078,0.234-0.388-0.787
			c0-0.078-0.078-0.234-0.078-0.314l-0.621-1.414c-1.09-1.967-0.316,0.391-0.855-2.123c-0.383-1.965-1.091-1.652-1.711-3.461
			l-0.695-2.045c-1.873-2.598-1.628-4.559-3.808-8.648c-0.311-0.629-0.078-0.158-0.468-0.709l-0.779-1.414
			c-0.231-0.551-0.152-0.709-0.387-1.258c-0.543-1.26-0.156-0.158-0.623-0.945l-2.16-8.25c-0.153-1.021,0.008-1.963-0.145-2.984
			c-0.151-0.941-0.465-1.178-0.692-2.748c-0.23-1.258-0.543-1.338-0.696-2.357c-0.228-1.885,0.021-4.709-0.049-6.592
			c-0.069-2.355-0.77-3.457-0.758-6.205c0.009-1.883-0.134-4.787,0.107-6.512c0.484-3.137,0.2-9.34,1.075-12.318
			c0.241-1.098,0.636-1.725,0.797-2.664c0.403-2.588,0.014-2.982,1.045-5.566c0.079-0.08,0.08-0.156,0.08-0.236
			c0.555-1.33,0.632-0.859,0.875-2.35c0.241-1.648-0.15-1.572,0.484-3.059l1.904-4.701c0.239-1.098-0.07-1.805,0.325-2.824
			c0.001-0.156,1.107-1.879,1.267-2.191c0.553-0.781,0.313-0.154,0.712-1.252l3.802-7.91c0.001-0.078,0.079-0.156,0.158-0.234
			l0.714-1.566c0.631-0.938,0.786-0.623,1.502-2.504c1.032-2.82,2.125-1.561,4.343-5.789l1.817-3.209
			c0.318-0.627,0.08-0.234,0.711-0.781c1.104-1.172,1.187-2.271,2.608-4.07c0.552-0.625,0.944-0.467,1.735-1.797
			c0.946-1.486,1.102-0.779,2.128-2.188c0.147-0.205,0.221-0.305,0.267-0.369c-0.078,0.105-0.18,0.238,0.048-0.1
			c0.557-1.098,1.731-1.092,2.678-1.873c0.71-0.625,0.713-1.33,2.288-2.814l10.402-9.529c0-0.076,0.158-0.154,0.158-0.154
			l4.255-3.984l0.237-0.234l1.261-1.014c2.992-2.184,6.217-3.896,9.598-5.529l8.493-3.887c5.349-2.645,9.588-2.939,11.476-3.715
			l3.614-1.318c6.21-1.699,8.484-1.375,11.233-2.068l0.942-0.232c1.729-0.619,2.827-0.537,4.633-0.605
			c1.727,0.006,1.885-0.307,3.142-0.381c6.28-0.52,13.575,0.141,19.46,0.48c1.727,0.086,1.411,0.477,2.664,0.719
			c1.1,0.24,2.434,0.01,3.532,0.094l21.397,6.061c2.036,1.422,7.361,3.486,9.79,4.438l4.386,2.453
			c0.859,0.553-0.237,0.078,1.017,0.633l2.271,1.188c0.705,0.395,0.548,0.316,1.488,0.635l2.426,1.422
			c0.079,0.078,0.391,0.238,0.549,0.238c1.252,0.791,2.108,2.207,3.439,3.076l3.678,2.605c1.173,0.869,0.937,0.947,1.873,1.893
			c1.25,1.42,1.02,0.477,2.194,1.188l11.716,12.373c2.658,2.367,2.496,3.387,4.058,5.197c0.156,0.158,0.857,1.418,1.403,2.049
			l1.873,2.047c0,0.078,0.078,0.158,0.078,0.236c0.078,0.08,0.077,0.156,0.156,0.236l1.246,2.203c0.7,1.494,2.342,2.836,2.729,4.172
			l4.275,9.123c0.079,0.078,0.078,0.156,0.155,0.236l4.192,10.219c1.324,2.52,1.938,5.816,2.709,8.49
			c-0.001,0.078,0.078,0.234,0.077,0.312l1.528,8.955c0.078,0.314,0.391,1.021,0.468,1.1
			C871.607,672.7,871.581,696.323,870.86,699.379z"/>
		<path d="M679.627,613.633C679.682,613.559,679.711,613.518,679.627,613.633L679.627,613.633z"/>
	</g>
	<path d="M299.146,715.268c0.711-1.252,0.795-2.506,2.053-3.131c0.168-2.273,1.834-6.268,3.177-8.225l0.08-0.234
		c0.315-0.471-0.155-0.395,0.709-0.783c0.009-1.883,0.243-1.805,0.643-3.215c0.08-0.549,0.081-0.861,0.243-1.646
		c0.08-0.549,0-0.236,0.16-0.705c0.556-1.41,0.402-2.432,0.646-4.078c0.158-0.627,0.395-0.705,0.477-1.332l0.59-9.258
		c0.035-7.848-0.952-15.072-3.039-22.301l-2.791-7.705c-0.232-0.551-0.387-1.18-0.385-1.65c-1.412-0.084-1.406-1.496-1.951-2.598
		l-0.545-1.18c-0.387-0.785-0.7-1.023-1.169-1.652c-0.935-1.418-1.788-3.697-2.726-4.879l-3.512-4.488l-0.154-0.158
		c0-0.078-0.393-0.316-0.393-0.395c-0.624-0.709-0.543-1.18-1.09-1.811c-1.562-1.654-7.499-7.803-8.674-8.514l-3.128-2.367
		l-0.077-0.158c-0.078-0.002-0.078-0.078-0.156-0.158l-1.016-1.023l-0.157-0.08l-10.879-6.641c-0.548-0.316-1.019-0.24-1.646-0.479
		c-1.02-0.32-0.625-0.553-1.958-1.029l-3.054-1.426c-1.253-0.477-2.193-0.951-3.525-1.193l-1.1-0.24l-2.428-0.873
		c-0.705-0.396-1.804-0.322-2.666-0.404c-1.1-0.24-0.783-0.318-1.176-0.477c-1.489-0.398-1.493,0.465-2.271-0.873l-2.119-0.01
		c-0.78-1.104-14.043-1.24-15.534-1.09c-1.413,0.15-4.082,0.139-5.576,0.682c-1.257,0.543-3.22,0.377-4.476,0.607
		c-0.707,0.154-1.883,0.229-2.435,0.459c-1.888,0.777-2.906,0.459-4.792,1.078l-13.682,5.668c-1.258,0.779-2.83,1.164-4.011,2.021
		c-0.708,0.547-0.946,1.096-1.733,1.562l-2.518,1.637c-1.419,1.092-1.889,0.934-2.912,1.635c-1.496,1.092-2.758,2.5-4.098,3.828
		c-0.08,0-0.08,0.078-0.158,0.078l-0.157,0.154l-0.551,0.312c0,0.08-0.079,0.08-0.157,0.156l-3.074,2.969
		c-0.079,0-0.08,0.078-0.158,0.078c-0.078,0.078-0.234,0.154-0.314,0.234l-8.126,9.617l-2.69,4.775
		c-0.078,0.076-0.156,0.076-0.156,0.154l-0.869,1.096c-0.236,0.469-0.395,0.625-0.555,1.018c-0.079,0.078-0.079,0.156-0.08,0.234
		l-0.078,0.158c-0.236,0.549-0.08,0.234-0.316,0.547l-6.035,15.748c-0.318,1.176,0.153,0.863-0.638,2.43l-1.378,9.883
		c-0.002,0.471,0.074,0.863-0.006,1.334l-0.268,6.904l1.047,11.775c0.076,0.395,0.153,0.865,0.229,1.416
		c0.077,0.393,0.543,1.414,0.538,2.514c1.411,0.24,0.703,0.865,1.317,3.537l2.249,5.895c0.079,0.08,0.078,0.158,0.078,0.158
		c1.011,2.438,0.85,3.221,2.641,6.447l1.711,3.305c0.234,0.314,0.389,0.707,0.467,0.865l0.235,0.314
		c0.077,0.236,0.231,0.471,0.231,0.551l0.936,1.494l0.078,0.08l5.461,7.322c0.312,0.393,0.156,0.314,0.469,0.631
		c-0.001,0.076,0.156,0.156,0.234,0.236l5.857,6.068l0.156,0.158l0.157,0.156l1.015,1.104c3.129,2.447,2.193,1.031,5.242,3.791
		c0.469,0.473,0.703,0.631,1.33,1.025c0.703,0.631,0.859,0.633,1.484,1.184c0,0.08,0.078,0.158,0.156,0.158l11.039,6.328
		c0.469,0.236,0.47,0.08,1.097,0.318l0.548,0.238c1.802,0.793,6.272,1.283,7.526,1.838l2.114,0.873
		c2.35,1.109,3.141,0.014,4.939,0.965c2.662,1.424,5.96,0.967,9.021,1.217c2.354,0.168,0.155,0.393,2.116,0.559l10.125-0.033
		c1.334,0.006,0.862-0.152,1.885-0.385c0.863-0.23,1.648-0.07,2.59-0.145c1.414-0.15,2.594-0.852,3.693-1.238l8.093-1.926
		c1.415-0.701-0.155-0.395,2.044-0.699c1.569-0.227-0.155-0.471,2.043-0.539c0.322-1.803,1.18-0.779,2.361-1.559l1.26-1.25
		c1.414,0.006,0.786,0.004,1.729-0.385l2.203-0.932l0.235-0.078l0.788-0.467l0.312-0.234l0.395-0.156
		c2.359-1.166,1.181-0.777,2.912-1.869c2.125-1.326,3.064-1.006,5.27-2.723l1.812-1.562c0.63-0.547,0.237-0.312,0.866-0.545
		c1.651-0.699,1.417-1.172,2.755-2.029c2.361-1.402,1.896-2.502,3.549-3.594l2.364-2.188c0.866-0.938,1.258-0.621,2.364-2.344
		c0.633-1.018,1.576-1.641,2.131-2.658l1.264-1.721c0,0,0.079-0.078,0.08-0.156c1.971-2.504,3.79-5.557,5.138-8.453l0.476-1.018
		L299.146,715.268z M266.806,698.958c0.316-0.705,0.398-1.332,1.026-1.643c0.084-1.178,0.958-3.215,1.589-4.23l0.08-0.08
		c0.156-0.234-0.078-0.234,0.395-0.469c0.004-0.941,0.082-0.941,0.32-1.646c0.001-0.236,0.002-0.471,0.082-0.783
		c0.08-0.314,0.001-0.158,0.08-0.395c0.318-0.703,0.242-1.254,0.401-2.115c0.001-0.314,0.159-0.393,0.239-0.707l0.258-4.785
		c0.018-4.002-0.438-7.693-1.52-11.465l-1.473-4.01c-0.156-0.234-0.154-0.627-0.232-0.863c-0.705-0.004-0.702-0.787-1.014-1.338
		l-0.234-0.551c-0.154-0.395-0.389-0.551-0.623-0.865c-0.468-0.709-0.933-1.967-1.4-2.518l-1.795-2.363h-0.078
		c0-0.078-0.234-0.236-0.234-0.236c-0.312-0.395-0.232-0.631-0.545-0.945c-0.859-0.867-3.828-4.02-4.455-4.414l-1.643-1.186
		l-0.078-0.078v-0.078l-0.547-0.553l-0.078-0.078l-5.635-3.4c-0.234-0.158-0.549-0.08-0.862-0.24
		c-0.548-0.158-0.313-0.236-0.939-0.475l-1.645-0.791c-0.627-0.238-1.097-0.477-1.803-0.557l-0.549-0.16l-1.253-0.477
		c-0.392-0.16-0.941-0.162-1.412-0.164c-0.548-0.158-0.392-0.158-0.547-0.236c-0.785-0.24-0.787,0.23-1.176-0.477l-1.098-0.006
		c-0.391-0.551-7.298-0.66-8.082-0.586c-0.707,0.076-2.041,0.07-2.828,0.381c-0.627,0.232-1.647,0.15-2.276,0.303
		c-0.394,0.078-1.021,0.074-1.335,0.23c-0.943,0.389-1.414,0.229-2.436,0.539l-6.998,2.949c-0.707,0.391-1.493,0.621-2.123,1.012
		c-0.315,0.312-0.473,0.547-0.868,0.859l-1.336,0.779c-0.71,0.625-0.945,0.545-1.496,0.855c-0.787,0.547-1.417,1.328-2.127,1.953
		l-0.001,0.08l-0.078,0.076l-0.315,0.156c-0.001,0.078-0.078,0.078-0.078,0.078l-1.577,1.562h-0.078
		c-0.078,0.076-0.157,0.156-0.236,0.156l-4.182,4.926l-1.345,2.504c-0.077,0-0.077,0-0.078,0.078l-0.474,0.547
		c-0.158,0.234-0.158,0.314-0.316,0.549l-0.001,0.078l-0.079,0.156c-0.08,0.234-0.001,0.078-0.08,0.234l-3.174,8.148
		c-0.16,0.549,0.075,0.395-0.322,1.256l-0.728,5.018c-0.001,0.236,0.077,0.473-0.003,0.707l-0.095,3.609l0.523,6.045
		c0.077,0.236,0.075,0.473,0.153,0.707c-0.002,0.236,0.231,0.787,0.229,1.336c0.707,0.082,0.391,0.395,0.699,1.809l1.163,3.064
		c0,0,0,0.078,0.078,0.078c0.466,1.26,0.386,1.65,1.319,3.303l0.936,1.732c0.076,0.156,0.154,0.314,0.231,0.393l0.078,0.236
		c0.078,0.078,0.077,0.236,0.156,0.236l0.468,0.785l-0.001,0.08l2.808,3.779l0.235,0.236l0.156,0.158l3.046,3.152l0.078,0.078
		l0.079,0.078l0.468,0.553c1.643,1.264,1.175,0.555,2.737,1.973c0.235,0.236,0.392,0.316,0.704,0.553
		c0.393,0.238,0.47,0.238,0.783,0.553v0.08l5.793,3.322c0.156,0.078,0.233,0.002,0.469,0.158l0.312,0.08
		c0.942,0.396,3.217,0.643,3.922,0.959l1.096,0.396c1.175,0.635,1.57,0.008,2.509,0.561c1.41,0.713,3.06,0.486,4.706,0.57
		c1.177,0.162,0.078,0.236,1.02,0.32l5.258,0.023c0.707-0.076,0.393-0.076,0.943-0.232c0.472-0.076,0.863,0.004,1.334-0.072
		c0.707-0.074,1.336-0.387,1.887-0.619l4.243-1.002c0.707-0.389-0.078-0.234,1.021-0.387c0.785-0.076-0.077-0.236,1.021-0.23
		c0.162-0.941,0.63-0.391,1.26-0.859l0.631-0.623c0.705,0.002,0.392,0.002,0.863-0.154l1.18-0.543h0.078l0.473-0.312l0.157-0.078
		l0.158-0.078c1.257-0.543,0.63-0.389,1.494-0.934c1.103-0.703,1.572-0.543,2.753-1.4l0.947-0.859
		c0.313-0.234,0.078-0.078,0.393-0.234c0.865-0.389,0.709-0.625,1.418-1.092c1.258-0.701,1.025-1.252,1.891-1.875l1.183-1.094
		c0.474-0.469,0.628-0.311,1.182-1.172c0.317-0.549,0.868-0.859,1.106-1.408l0.709-0.859v-0.078c1.027-1.33,1.977-2.896,2.689-4.385
		l0.236-0.547L266.806,698.958z"/>
	<path d="M829.881,719.915c0.713-1.33,0.797-2.506,2.056-3.129c0.168-2.354,1.834-6.27,3.097-8.305l0.158-0.156
		c0.316-0.469-0.156-0.393,0.711-0.859c0.008-1.805,0.244-1.805,0.642-3.215c0.081-0.471,0.082-0.863,0.165-1.57
		c0.157-0.549,0.08-0.234,0.237-0.705c0.477-1.41,0.325-2.51,0.646-4.078c0.161-0.705,0.396-0.781,0.478-1.41l0.59-9.178
		c0.035-7.85-0.952-15.074-3.038-22.303l-2.87-7.783c-0.154-0.471-0.309-1.178-0.307-1.65c-1.412-0.006-1.405-1.496-2.028-2.598
		l-0.465-1.102c-0.391-0.865-0.702-1.102-1.17-1.732c-0.938-1.416-1.789-3.695-2.804-4.877l-3.433-4.488l-0.157-0.158
		c-0.079,0-0.39-0.316-0.39-0.395c-0.625-0.631-0.545-1.178-1.17-1.809c-1.562-1.656-7.42-7.803-8.594-8.516l-3.13-2.289
		l-0.157-0.158c0.001-0.078-0.078-0.158-0.078-0.158l-1.015-1.102l-0.155-0.08l-10.957-6.641c-0.472-0.316-1.021-0.24-1.569-0.4
		c-1.098-0.396-0.626-0.631-1.957-1.029l-3.054-1.426c-1.333-0.477-2.193-0.951-3.527-1.193l-1.175-0.318l-2.43-0.873
		c-0.627-0.396-1.726-0.244-2.587-0.404c-1.099-0.162-0.784-0.318-1.177-0.398c-1.49-0.398-1.494,0.465-2.271-0.873l-2.12-0.01
		c-0.778-1.102-14.119-1.318-15.61-1.168c-1.415,0.229-4.081,0.139-5.498,0.76c-1.337,0.465-3.218,0.301-4.476,0.607
		c-0.708,0.154-1.885,0.148-2.514,0.381c-1.809,0.777-2.827,0.459-4.714,1.078l-13.681,5.668c-1.337,0.779-2.829,1.164-4.011,2.102
		c-0.71,0.467-0.945,1.016-1.733,1.482l-2.52,1.637c-1.495,1.094-1.886,1.012-2.912,1.715c-1.572,1.012-2.757,2.42-4.098,3.748
		l-0.155,0.156l-0.158,0.156l-0.552,0.311c0,0-0.078,0.08-0.157,0.078l-3.075,2.969c-0.076,0.078-0.155,0.078-0.155,0.156
		c-0.078,0-0.315,0.156-0.315,0.156l-8.127,9.617l-2.768,4.773c0,0.078-0.08,0.158-0.08,0.158l-0.867,1.172
		c-0.316,0.471-0.396,0.627-0.633,1.018c0,0.078,0,0.158-0.078,0.158l-0.081,0.234c-0.238,0.469,0,0.156-0.238,0.547l-6.033,15.748
		c-0.32,1.098,0.153,0.863-0.639,2.352l-1.379,9.883l-0.007,1.412l-0.265,6.826l1.046,11.855c0.078,0.314,0.075,0.785,0.228,1.414
		c0.078,0.393,0.465,1.336,0.46,2.436c1.491,0.242,0.781,0.865,1.397,3.615l2.25,5.818c0,0.078,0.077,0.156,0.077,0.234
		c1.009,2.359,0.849,3.145,2.64,6.369l1.712,3.383c0.234,0.314,0.391,0.631,0.469,0.787l0.231,0.393
		c0.079,0.158,0.156,0.473,0.234,0.551l0.855,1.416l0.157,0.158l5.46,7.322c0.313,0.395,0.156,0.236,0.392,0.553
		c0.078,0.078,0.232,0.236,0.312,0.236l5.858,6.146l0.158,0.08l0.077,0.156l1.015,1.104c3.206,2.525,2.272,1.031,5.321,3.791
		c0.39,0.473,0.701,0.631,1.249,1.105c0.782,0.553,0.939,0.553,1.564,1.184l0.079,0.078l11.114,6.406
		c0.393,0.16,0.471,0.08,1.019,0.24l0.626,0.316c1.803,0.715,6.197,1.205,7.527,1.76l2.117,0.873
		c2.349,1.189,3.137,0.014,4.938,0.965c2.662,1.424,5.962,0.969,9.02,1.217c2.354,0.168,0.156,0.473,2.118,0.561l10.122,0.045
		c1.335-0.074,0.865-0.232,1.887-0.463c0.862-0.154,1.647,0.008,2.589-0.146c1.336-0.15,2.594-0.773,3.694-1.16l8.094-2.006
		c1.416-0.697-0.157-0.393,2.043-0.617c1.57-0.229-0.155-0.471,2.043-0.541c0.244-1.881,1.18-0.779,2.361-1.637l1.262-1.25
		c1.411,0.008,0.704,0.004,1.728-0.307l2.202-0.932l0.236-0.078c0.393-0.232,0.394-0.312,0.786-0.545l0.315-0.234l0.393-0.156
		c2.359-1.088,1.181-0.699,2.912-1.789c2.045-1.404,2.987-1.086,5.271-2.725l1.812-1.641c0.552-0.467,0.235-0.234,0.864-0.467
		c1.65-0.699,1.34-1.25,2.755-2.027c2.283-1.404,1.896-2.582,3.549-3.674l2.285-2.107c0.947-1.018,1.337-0.623,2.444-2.424
		c0.553-0.939,1.575-1.562,2.13-2.58l1.263-1.721c0.001-0.078,0.08-0.156,0.08-0.156c1.975-2.502,3.793-5.555,5.06-8.453
		l0.555-1.096L829.881,719.915z M797.465,703.526c0.395-0.627,0.397-1.254,1.105-1.564c0.084-1.178,0.955-3.215,1.588-4.311
		l0.08-0.078c0.158-0.234-0.079-0.156,0.314-0.389c0.005-0.943,0.162-0.943,0.322-1.727c0.08-0.234,0.081-0.391,0.161-0.785
		c0.001-0.312,0.001-0.156,0.079-0.391c0.239-0.707,0.162-1.256,0.324-2.117c0.08-0.314,0.235-0.314,0.236-0.627l0.337-4.787
		c0.019-4.08-0.514-7.77-1.596-11.543l-1.396-3.93c-0.156-0.314-0.231-0.629-0.23-0.865c-0.706-0.08-0.703-0.787-1.016-1.338
		l-0.231-0.629c-0.234-0.393-0.392-0.551-0.624-0.867c-0.468-0.707-0.936-1.887-1.402-2.518l-1.795-2.283l-0.077-0.078
		c-0.078-0.002-0.234-0.158-0.234-0.236c-0.312-0.316-0.233-0.551-0.546-0.945c-0.86-0.789-3.905-4.02-4.532-4.336l-1.562-1.186
		l-0.079-0.076c0-0.08,0-0.08-0.078-0.16l-0.468-0.551h-0.079l-5.635-3.398c-0.236-0.16-0.549-0.16-0.863-0.24
		c-0.548-0.238-0.312-0.314-1.018-0.555l-1.565-0.713c-0.627-0.236-1.099-0.475-1.803-0.637l-0.549-0.158l-1.254-0.398
		c-0.393-0.236-0.942-0.16-1.412-0.242c-0.55-0.08-0.391-0.158-0.627-0.236c-0.704-0.162-0.706,0.23-1.097-0.477l-1.099-0.006
		c-0.468-0.551-7.295-0.66-8.08-0.506c-0.708,0.074-2.12,0.068-2.827,0.301c-0.708,0.311-1.649,0.229-2.356,0.381
		c-0.313,0.078-0.941,0.076-1.257,0.152c-0.942,0.467-1.492,0.307-2.434,0.617l-7.076,2.873c-0.63,0.389-1.417,0.619-2.047,1.088
		c-0.313,0.234-0.473,0.549-0.866,0.781l-1.338,0.857c-0.709,0.547-0.943,0.467-1.494,0.855c-0.788,0.547-1.42,1.25-2.13,1.953
		l-0.078,0.078l-0.077,0.078l-0.237,0.156h-0.079l-1.654,1.562c0,0-0.001,0.078-0.079,0.078c0,0-0.079,0.078-0.158,0.078
		l-4.18,5.004l-1.425,2.426v0.078l-0.474,0.627c-0.158,0.234-0.238,0.312-0.317,0.469v0.158l-0.078,0.076
		c-0.079,0.236,0,0.078-0.158,0.314l-3.098,8.068c-0.16,0.627,0.077,0.473-0.318,1.254l-0.729,5.1l-0.003,0.705l-0.095,3.531
		l0.522,6.123c0.078,0.158,0.077,0.395,0.075,0.707c0.077,0.236,0.31,0.709,0.308,1.258c0.706,0.16,0.391,0.473,0.698,1.887
		l1.163,2.988v0.078c0.544,1.258,0.463,1.65,1.399,3.303l0.854,1.73c0.156,0.156,0.234,0.314,0.234,0.471l0.156,0.158
		c0,0.078,0.075,0.236,0.075,0.314l0.469,0.707l0.077,0.08l2.811,3.779c0.154,0.236,0.075,0.156,0.232,0.314
		c0,0,0.078,0.078,0.157,0.08l3.048,3.152l-0.001,0.078l0.076,0.078l0.547,0.553c1.644,1.342,1.175,0.555,2.739,1.975
		c0.233,0.236,0.312,0.314,0.626,0.553c0.39,0.314,0.469,0.314,0.78,0.631c0.079,0,0.079,0,0.079,0.078l5.714,3.244
		c0.235,0.078,0.235,0.078,0.549,0.16l0.313,0.156c0.94,0.396,3.215,0.564,3.92,0.881l1.018,0.477
		c1.254,0.555,1.647,0.006,2.589,0.482c1.33,0.711,3.058,0.484,4.628,0.648c1.254,0.084,0.077,0.236,1.097,0.24l5.259,0.023
		c0.705,0.004,0.392-0.076,0.942-0.23c0.47-0.078,0.864,0.004,1.334-0.074c0.706-0.074,1.335-0.387,1.885-0.619l4.165-1.002
		c0.788-0.389-0.077-0.156,1.1-0.309c0.786-0.152-0.078-0.236,1.023-0.309c0.16-0.941,0.627-0.389,1.257-0.781l0.631-0.701
		c0.707,0.002,0.395,0.002,0.866-0.154l1.179-0.465l0.08-0.078c0.234-0.078,0.234-0.156,0.393-0.234l0.236-0.078l0.156-0.154
		c1.18-0.545,0.629-0.312,1.496-0.938c1.102-0.699,1.572-0.541,2.753-1.398l0.944-0.781c0.238-0.312,0.079-0.156,0.396-0.312
		c0.863-0.309,0.707-0.625,1.415-1.014c1.181-0.701,1.026-1.33,1.814-1.875l1.261-1.092c0.473-0.549,0.629-0.312,1.184-1.252
		c0.314-0.469,0.866-0.859,1.104-1.328l0.632-0.939c0.078,0,0.078,0,0.078-0.078c1.026-1.252,1.974-2.816,2.608-4.305l0.318-0.549
		V703.526z"/>
	<path d="M566.917,258.772c0.634-1.333,0.795-2.509,2.054-3.131c0.089-2.353,1.833-6.27,3.098-8.304l0.08-0.157
		c0.315-0.469-0.078-0.393,0.787-0.859c0.008-1.805,0.244-1.804,0.563-3.215c0.159-0.47,0.082-0.863,0.244-1.569
		c0.08-0.626,0.001-0.313,0.239-0.705c0.477-1.411,0.323-2.51,0.644-4.078c0.082-0.707,0.318-0.783,0.479-1.411l0.511-9.18
		c0.035-7.848-0.875-15.072-3.04-22.302l-2.791-7.782c-0.231-0.55-0.307-1.179-0.384-1.649c-1.413-0.085-1.406-1.498-1.951-2.599
		l-0.544-1.102c-0.31-0.865-0.623-1.101-1.091-1.731c-0.936-1.417-1.789-3.696-2.804-4.877l-3.433-4.489l-0.157-0.158
		c-0.079,0-0.39-0.316-0.469-0.395c-0.625-0.63-0.465-1.179-1.091-1.81c-1.562-1.654-7.42-7.802-8.673-8.515l-3.051-2.29
		l-0.155-0.157c-0.078-0.079-0.078-0.158-0.156-0.158l-1.016-1.103l-0.077-0.08l-10.958-6.641c-0.47-0.316-1.019-0.24-1.646-0.399
		c-1.021-0.397-0.547-0.63-1.88-1.029l-3.133-1.505c-1.252-0.397-2.114-0.873-3.524-1.193l-1.1-0.24l-2.427-0.874
		c-0.706-0.395-1.805-0.244-2.669-0.404c-1.019-0.162-0.705-0.317-1.175-0.398c-1.488-0.399-1.492,0.464-2.193-0.873l-2.118-0.01
		c-0.859-1.102-14.121-1.319-15.612-1.168c-1.415,0.229-4.081,0.138-5.577,0.759c-1.256,0.465-3.218,0.3-4.476,0.608
		c-0.629,0.154-1.883,0.148-2.435,0.381c-1.886,0.777-2.906,0.458-4.791,1.078l-13.682,5.667c-1.257,0.779-2.83,1.165-4.012,2.023
		c-0.631,0.546-0.867,1.095-1.654,1.562l-2.597,1.637c-1.418,1.092-1.888,1.012-2.91,1.635c-1.497,1.092-2.76,2.499-4.099,3.828
		c0,0-0.078,0.077-0.079,0.156l-0.158,0.156l-0.551,0.312c-0.079,0-0.157,0.078-0.157,0.078l-3.152,2.969
		c0,0-0.078,0.078-0.158,0.077c-0.078,0.078-0.234,0.235-0.312,0.235l-8.127,9.616l-2.691,4.775l-0.156,0.156l-0.869,1.173
		c-0.236,0.469-0.395,0.626-0.554,1.017c-0.001,0.079-0.079,0.078-0.079,0.157l-0.08,0.235c-0.236,0.469-0.08,0.157-0.236,0.548
		l-6.035,15.748c-0.398,1.097,0.073,0.863-0.64,2.351l-1.378,9.882c-0.08,0.471-0.005,0.942-0.084,1.412l-0.267,6.826l1.046,11.855
		c0.154,0.314,0.152,0.786,0.229,1.336c0.154,0.471,0.543,1.415,0.539,2.513c1.411,0.242,0.703,0.867,1.396,3.617l2.249,5.816
		c0,0.079-0.001,0.158,0.077,0.236c1.01,2.358,0.772,3.143,2.562,6.369l1.791,3.303c0.154,0.394,0.31,0.708,0.467,0.866l0.156,0.394
		c0.075,0.157,0.231,0.471,0.311,0.472l0.855,1.495l0.078,0.158l5.461,7.322c0.312,0.394,0.157,0.236,0.469,0.551l0.235,0.236
		l5.856,6.148l0.158,0.08l0.156,0.157l1.015,1.104c3.207,2.525,2.271,1.03,5.241,3.791c0.469,0.473,0.704,0.63,1.33,1.104
		c0.78,0.553,0.938,0.554,1.485,1.184c0.078,0,0.077,0.078,0.156,0.078l11.114,6.407c0.393,0.159,0.473,0.081,1.021,0.241
		l0.548,0.316c1.802,0.714,6.272,1.205,7.604,1.76l2.115,0.874c2.271,1.186,3.061,0.014,4.86,0.963
		c2.663,1.424,5.961,0.969,9.1,1.218c2.275,0.167,0.152,0.472,2.037,0.559l10.201,0.045c1.335-0.072,0.786-0.232,1.808-0.462
		c0.943-0.231,1.727,0.008,2.592-0.146c1.412-0.15,2.592-0.772,3.691-1.238l8.171-1.925c1.339-0.701-0.153-0.394,2.046-0.698
		c1.49-0.15-0.234-0.471,1.963-0.461c0.322-1.883,1.18-0.781,2.44-1.638l1.183-1.25c1.413,0.006,0.785,0.003,1.728-0.307l2.28-0.932
		l0.158-0.155l0.788-0.468l0.393-0.233l0.313-0.155c2.359-1.089,1.26-0.701,2.991-1.792c2.047-1.404,2.987-1.085,5.191-2.725
		l1.892-1.639c0.551-0.468,0.237-0.234,0.864-0.545c1.574-0.621,1.341-1.171,2.678-1.95c2.362-1.402,1.896-2.582,3.549-3.673
		l2.364-2.108c0.945-1.017,1.335-0.622,2.365-2.423c0.63-0.938,1.654-1.64,2.13-2.58l1.263-1.721c0.08-0.077,0.08-0.156,0.157-0.156
		c1.896-2.581,3.793-5.556,5.062-8.454l0.555-1.096L566.917,258.772z M534.499,242.381c0.315-0.626,0.397-1.254,1.026-1.565
		c0.085-1.177,0.958-3.213,1.667-4.309l0.001-0.078c0.159-0.235,0-0.158,0.395-0.391c0.005-1.02,0.161-0.942,0.321-1.725
		c0.08-0.235,0.081-0.393,0.083-0.784c0.079-0.314,0.078-0.157,0.159-0.392c0.237-0.706,0.16-1.256,0.321-2.118
		c0.081-0.313,0.16-0.313,0.24-0.705l0.334-4.708c0.019-4.081-0.515-7.772-1.596-11.544l-1.473-4.008
		c-0.078-0.236-0.155-0.55-0.154-0.786c-0.785-0.082-0.782-0.789-1.014-1.339l-0.312-0.628c-0.156-0.393-0.311-0.552-0.545-0.867
		c-0.547-0.708-0.934-1.887-1.479-2.518l-1.795-2.284l-0.078-0.079l-0.235-0.236c-0.312-0.315-0.231-0.55-0.546-0.944
		c-0.779-0.788-3.826-4.02-4.453-4.336l-1.563-1.262l-0.078-0.08c0,0-0.079,0-0.078-0.079l-0.547-0.552l-0.079,0l-5.635-3.399
		c-0.235-0.236-0.47-0.16-0.784-0.239c-0.548-0.238-0.312-0.315-1.018-0.554l-1.566-0.714c-0.705-0.238-1.174-0.554-1.881-0.637
		l-0.548-0.159l-1.255-0.398c-0.312-0.237-0.939-0.161-1.331-0.242c-0.552-0.082-0.394-0.158-0.627-0.238
		c-0.785-0.162-0.787,0.231-1.176-0.477l-1.099-0.005c-0.391-0.551-7.218-0.659-8.004-0.506c-0.705,0.075-2.119,0.069-2.905,0.301
		c-0.627,0.311-1.648,0.228-2.278,0.382c-0.312,0.076-0.94,0.074-1.254,0.151c-0.944,0.388-1.494,0.307-2.436,0.617l-7.076,2.873
		c-0.709,0.388-1.493,0.621-2.045,1.089c-0.395,0.233-0.552,0.546-0.946,0.78l-1.261,0.858c-0.785,0.546-1.021,0.467-1.494,0.856
		c-0.787,0.546-1.496,1.25-2.127,1.953c0,0-0.078,0-0.078,0.078l-0.08,0.078l-0.315,0.155h-0.076l-1.578,1.562l-0.08,0.079
		l-0.155,0.077l-4.182,4.926l-1.425,2.505l-0.077,0.078l-0.475,0.626c-0.08,0.234-0.158,0.313-0.237,0.47
		c0,0.078-0.079,0.078-0.079,0.156l-0.001,0.079c-0.158,0.235-0.079,0.077-0.158,0.313l-3.098,8.07
		c-0.158,0.548,0.077,0.471-0.318,1.253l-0.729,5.099l-0.003,0.706l-0.173,3.531l0.601,6.124c-0.001,0.157-0.002,0.392,0.074,0.707
		c0.079,0.158,0.233,0.708,0.231,1.257c0.785,0.16,0.389,0.472,0.698,1.808l1.164,3.065c0.076,0,0.076,0.08,0.076,0.08
		c0.546,1.257,0.386,1.649,1.32,3.301l0.936,1.731l0.231,0.473l0.078,0.156c0.079,0.079,0.156,0.236,0.156,0.236l0.467,0.788
		l0.079,0.078l2.809,3.78c0.156,0.158,0.077,0.157,0.231,0.315l0.079,0.079l3.048,3.152l0.077,0.079l0.079,0.078l0.547,0.553
		c1.643,1.263,1.096,0.554,2.658,1.974c0.235,0.236,0.391,0.316,0.705,0.553c0.39,0.315,0.469,0.316,0.782,0.631l0.077,0.078
		l5.716,3.243c0.154,0.08,0.233,0.08,0.549,0.16l0.312,0.158c0.863,0.318,3.215,0.563,3.841,0.88l1.097,0.477
		c1.175,0.555,1.649,0.007,2.51,0.482c1.411,0.712,3.139,0.484,4.706,0.649c1.178,0.083,0.078,0.236,1.098,0.24l5.18,0.023
		c0.707,0.003,0.471-0.077,0.942-0.231c0.473-0.077,0.942,0.004,1.335-0.073c0.786-0.075,1.336-0.386,1.965-0.619l4.165-1.001
		c0.707-0.39-0.077-0.158,1.1-0.309c0.784-0.154-0.156-0.236,1.021-0.309c0.161-0.942,0.551-0.391,1.182-0.858l0.63-0.625
		c0.783,0.004,0.392,0.002,0.941-0.152l1.101-0.467l0.159-0.077c0.157-0.078,0.157-0.157,0.393-0.235l0.157-0.155l0.237-0.078
		c1.177-0.544,0.55-0.312,1.494-0.936c1.022-0.701,1.572-0.542,2.674-1.4l0.946-0.78c0.315-0.312,0.156-0.156,0.473-0.312
		c0.786-0.311,0.709-0.625,1.415-1.014c1.181-0.702,0.949-1.331,1.814-1.876l1.182-1.093c0.473-0.547,0.708-0.311,1.263-1.25
		c0.316-0.47,0.789-0.86,1.104-1.329l0.632-0.939c0,0,0.079,0,0.079-0.078c0.947-1.251,1.976-2.816,2.608-4.305l0.239-0.548
		L534.499,242.381z"/>
</g>
<path fill="#FFFFFF" stroke="#000000" stroke-miterlimit="10" d="M500,601.604c-56.115,0-101.604-45.491-101.604-101.604
	c0-56.115,45.489-101.604,101.604-101.604c56.114,0,101.604,45.489,101.604,101.604C601.604,556.113,556.114,601.604,500,601.604z"
	/>
</svg>
