<svg xmlns="http://www.w3.org/2000/svg" data-name="Layer 1" viewBox="0 0 5 6.25" x="0px" y="0px"><title>spinner</title><path d="M4.30737,2.83909a.90829.90829,0,0,0-.0991-.06082.897.897,0,0,0-.335-.1005c-.06-.00571-.07935-.00281-.20439-.0196a.54177.54177,0,0,1-.34165-.20031l.00012-.00006-.01449-.02047a.53886.53886,0,0,1-.059-.47075c.04361-.11838.05523-.13413.07823-.18984a.897.897,0,0,0,.06781-.34315.89895.89895,0,1,0-1.7979,0,.897.897,0,0,0,.06781.34315c.023.05571.03462.07145.07823.18984a.519.519,0,0,1-.4169.6916c-.125.0168-.14439.01389-.20439.0196a.897.897,0,0,0-.335.1005.899.899,0,0,0-.377,1.2116h0l.00028.0005.00051.001h0a.90013.90013,0,0,0,1.4853.14987c.03849-.04638.047-.064.13123-.15791a.59333.59333,0,0,1,.46731-.17476.59636.59636,0,0,1,.46857.17476c.08425.0939.09274.11153.13123.15791a.897.897,0,0,0,.27163.22039.89905.89905,0,0,0,1.21367-.37026h0l.00038-.00074.00041-.00074h0A.89992.89992,0,0,0,4.30737,2.83909Zm-2.508.97241a.62643.62643,0,1,1,.04924-.24345A.62282.62282,0,0,1,1.79939,3.8115Zm.6948-.31526a.603.603,0,1,1,.603-.603A.603.603,0,0,1,2.49419,3.49624ZM3.076,1.66946A.62641.62641,0,1,1,3.12523,1.426.6228.6228,0,0,1,3.076,1.66946Zm1.29519,2.142a.62643.62643,0,1,1,.04924-.24345A.62282.62282,0,0,1,4.37117,3.8115Z"/><circle cx="2.5" cy="1.42602" r="0.3626"/><circle cx="1.2234" cy="3.56805" r="0.3626"/><circle cx="3.79519" cy="3.56805" r="0.3626"/><text x="0" y="20" fill="#000000" font-size="5px" font-weight="bold" font-family="'Helvetica Neue', Helvetica, Arial-Unicode, Arial, Sans-serif">Created by Alice Noir</text><text x="0" y="25" fill="#000000" font-size="5px" font-weight="bold" font-family="'Helvetica Neue', Helvetica, Arial-Unicode, Arial, Sans-serif">from the Noun Project</text></svg>